<svg width="210" height="101" viewBox="0 0 210 101" fill="none" xmlns="http://www.w3.org/2000/svg">
<path d="M12.177 81.322C14.289 81.322 15.961 82.037 17.193 83.467C18.447 84.875 19.074 86.789 19.074 89.209V100H12.606V90.067C12.606 89.011 12.331 88.186 11.781 87.592C11.231 86.976 10.494 86.668 9.57 86.668C8.602 86.668 7.843 86.976 7.293 87.592C6.743 88.186 6.468 89.011 6.468 90.067V100H0V75.58H6.468V84.127C7.04 83.291 7.81 82.62 8.778 82.114C9.768 81.586 10.901 81.322 12.177 81.322Z" fill="black"/>
<path d="M25.89 79.771C24.746 79.771 23.822 79.463 23.118 78.847C22.436 78.209 22.095 77.417 22.095 76.471C22.095 75.503 22.436 74.7 23.118 74.062C23.822 73.424 24.746 73.105 25.89 73.105C27.012 73.105 27.914 73.424 28.596 74.062C29.3 74.7 29.652 75.503 29.652 76.471C29.652 77.417 29.3 78.209 28.596 78.847C27.914 79.463 27.012 79.771 25.89 79.771ZM29.091 81.487V100H22.623V81.487H29.091Z" fill="black"/>
<path d="M39.2424 84.754C39.9684 83.698 40.8484 82.862 41.8824 82.246C42.9164 81.63 44.0274 81.322 45.2154 81.322V88.219H43.4004C41.9924 88.219 40.9474 88.494 40.2654 89.044C39.5834 89.594 39.2424 90.551 39.2424 91.915V100H32.7744V81.487H39.2424V84.754Z" fill="black"/>
<path d="M65.2222 90.529C65.2222 91.035 65.1892 91.541 65.1232 92.047H52.8802C52.9462 93.059 53.2212 93.818 53.7052 94.324C54.2112 94.808 54.8492 95.05 55.6192 95.05C56.6972 95.05 57.4672 94.566 57.9292 93.598H64.8262C64.5402 94.874 63.9792 96.018 63.1432 97.03C62.3292 98.02 61.2952 98.801 60.0412 99.373C58.7872 99.945 57.4012 100.231 55.8832 100.231C54.0572 100.231 52.4292 99.846 50.9992 99.076C49.5912 98.306 48.4802 97.206 47.6662 95.776C46.8742 94.346 46.4782 92.663 46.4782 90.727C46.4782 88.791 46.8742 87.119 47.6662 85.711C48.4582 84.281 49.5582 83.181 50.9662 82.411C52.3962 81.641 54.0352 81.256 55.8832 81.256C57.7092 81.256 59.3262 81.63 60.7342 82.378C62.1422 83.126 63.2422 84.204 64.0342 85.612C64.8262 86.998 65.2222 88.637 65.2222 90.529ZM58.6222 88.912C58.6222 88.12 58.3582 87.504 57.8302 87.064C57.3022 86.602 56.6422 86.371 55.8502 86.371C55.0582 86.371 54.4092 86.591 53.9032 87.031C53.3972 87.449 53.0672 88.076 52.9132 88.912H58.6222Z" fill="black"/>
<path d="M69.571 88.483C69.571 86.239 70.077 84.226 71.089 82.444C72.101 80.64 73.476 79.232 75.214 78.22C76.974 77.208 78.921 76.702 81.055 76.702C83.563 76.702 85.752 77.307 87.622 78.517C89.492 79.727 90.856 81.443 91.714 83.665H88.117C87.479 82.279 86.555 81.212 85.345 80.464C84.157 79.716 82.727 79.342 81.055 79.342C79.449 79.342 78.008 79.716 76.732 80.464C75.456 81.212 74.455 82.279 73.729 83.665C73.003 85.029 72.64 86.635 72.64 88.483C72.64 90.309 73.003 91.915 73.729 93.301C74.455 94.665 75.456 95.721 76.732 96.469C78.008 97.217 79.449 97.591 81.055 97.591C82.727 97.591 84.157 97.228 85.345 96.502C86.555 95.754 87.479 94.687 88.117 93.301H91.714C90.856 95.501 89.492 97.206 87.622 98.416C85.752 99.604 83.563 100.198 81.055 100.198C78.921 100.198 76.974 99.703 75.214 98.713C73.476 97.701 72.101 96.304 71.089 94.522C70.077 92.74 69.571 90.727 69.571 88.483Z" fill="black"/>
<path d="M99.7812 76.999V91.552C99.7812 93.598 100.276 95.116 101.266 96.106C102.278 97.096 103.675 97.591 105.457 97.591C107.217 97.591 108.592 97.096 109.582 96.106C110.594 95.116 111.1 93.598 111.1 91.552V76.999H114.103V91.519C114.103 93.433 113.718 95.05 112.948 96.37C112.178 97.668 111.133 98.636 109.813 99.274C108.515 99.912 107.052 100.231 105.424 100.231C103.796 100.231 102.322 99.912 101.002 99.274C99.7042 98.636 98.6702 97.668 97.9002 96.37C97.1522 95.05 96.7782 93.433 96.7782 91.519V76.999H99.7812Z" fill="black"/>
<path d="M122.776 97.558H130.828V100H119.773V76.999H122.776V97.558Z" fill="black"/>
<path d="M148.834 76.999V79.441H142.564V100H139.561V79.441H133.258V76.999H148.834Z" fill="black"/>
<path d="M156.127 76.999V91.552C156.127 93.598 156.622 95.116 157.612 96.106C158.624 97.096 160.021 97.591 161.803 97.591C163.563 97.591 164.938 97.096 165.928 96.106C166.94 95.116 167.446 93.598 167.446 91.552V76.999H170.449V91.519C170.449 93.433 170.064 95.05 169.294 96.37C168.524 97.668 167.479 98.636 166.159 99.274C164.861 99.912 163.398 100.231 161.77 100.231C160.142 100.231 158.668 99.912 157.348 99.274C156.05 98.636 155.016 97.668 154.246 96.37C153.498 95.05 153.124 93.433 153.124 91.519V76.999H156.127Z" fill="black"/>
<path d="M188.23 100L182.752 90.595H179.122V100H176.119V76.999H183.544C185.282 76.999 186.745 77.296 187.933 77.89C189.143 78.484 190.045 79.287 190.639 80.299C191.233 81.311 191.53 82.466 191.53 83.764C191.53 85.348 191.068 86.745 190.144 87.955C189.242 89.165 187.878 89.968 186.052 90.364L191.827 100H188.23ZM179.122 88.186H183.544C185.172 88.186 186.393 87.79 187.207 86.998C188.021 86.184 188.428 85.106 188.428 83.764C188.428 82.4 188.021 81.344 187.207 80.596C186.415 79.848 185.194 79.474 183.544 79.474H179.122V88.186Z" fill="black"/>
<path d="M199.859 79.441V87.13H208.241V89.605H199.859V97.525H209.231V100H196.856V76.966H209.231V79.441H199.859Z" fill="black"/>
<path d="M116 34C116 40.0751 111.075 45 105 45C98.9249 45 94 40.0751 94 34C94 27.9249 98.9249 23 105 23C111.075 23 116 27.9249 116 34Z" fill="url(#paint0_linear_19_33)"/>
<path d="M117.982 48.4853C118.89 49.6324 118.677 51.2272 117.657 52.2762C114.61 55.4099 107.191 61.627 96 62L90.0809 55.6666C90.0234 55.0981 90 54.5354 90 54C90 47.9249 96.7157 43 105 43C110.544 43 115.385 45.2055 117.982 48.4853Z" fill="url(#paint1_linear_19_33)"/>
<path d="M97.0914 68.1077C105.794 70.0976 114.939 68.7317 122.654 64.29C130.368 59.8483 136.067 52.667 138.583 44.2174C141.099 35.7677 140.242 26.6894 136.188 18.8424C132.133 10.9954 125.188 4.97373 116.775 2.01107C108.362 -0.951593 99.1181 -0.630942 90.9372 2.90733C82.7563 6.4456 76.2576 12.9336 72.7727 21.0422C69.2878 29.1507 69.0804 38.2659 72.1931 46.5203C75.3057 54.7747 88 62 96 62L90.0809 55.6666C85.7226 52.6818 82.3615 48.4399 80.4911 43.4799C78.1658 37.3134 78.3207 30.5037 80.9242 24.4461C83.5276 18.3886 88.3825 13.5416 94.4942 10.8983C100.606 8.25497 107.512 8.01542 113.797 10.2287C120.082 12.442 125.27 16.9406 128.299 22.8028C131.328 28.665 131.968 35.4471 130.089 41.7595C128.209 48.0719 121.263 59.1818 115.5 62.5C109.737 65.8182 97.0914 68.1077 97.0914 68.1077Z" fill="url(#paint2_linear_19_33)"/>
<defs>
<linearGradient id="paint0_linear_19_33" x1="105" y1="0" x2="105" y2="69.0001" gradientUnits="userSpaceOnUse">
<stop stop-color="#1E69B3"/>
<stop offset="1" stop-color="#42BBC7"/>
</linearGradient>
<linearGradient id="paint1_linear_19_33" x1="105" y1="0" x2="105" y2="69.0001" gradientUnits="userSpaceOnUse">
<stop stop-color="#1E69B3"/>
<stop offset="1" stop-color="#42BBC7"/>
</linearGradient>
<linearGradient id="paint2_linear_19_33" x1="105" y1="0" x2="105" y2="69.0001" gradientUnits="userSpaceOnUse">
<stop stop-color="#1E69B3"/>
<stop offset="1" stop-color="#42BBC7"/>
</linearGradient>
</defs>
</svg>
