<svg width="287" height="69" viewBox="0 0 287 69" fill="none" xmlns="http://www.w3.org/2000/svg">
<path d="M89.9459 27.0594C92.0579 27.0594 93.7299 27.7744 94.9619 29.2044C96.2159 30.6124 96.8429 32.5264 96.8429 34.9464V45.7374H90.3749V35.8044C90.3749 34.7484 90.0999 33.9234 89.5499 33.3294C88.9999 32.7134 88.2629 32.4054 87.3389 32.4054C86.3709 32.4054 85.6119 32.7134 85.0619 33.3294C84.5119 33.9234 84.2369 34.7484 84.2369 35.8044V45.7374H77.7689V21.3174H84.2369V29.8644C84.8089 29.0284 85.5789 28.3574 86.5469 27.8514C87.5369 27.3234 88.6699 27.0594 89.9459 27.0594Z" fill="black"/>
<path d="M103.659 25.5084C102.515 25.5084 101.591 25.2004 100.887 24.5844C100.205 23.9464 99.8639 23.1544 99.8639 22.2084C99.8639 21.2404 100.205 20.4374 100.887 19.7994C101.591 19.1614 102.515 18.8424 103.659 18.8424C104.781 18.8424 105.683 19.1614 106.365 19.7994C107.069 20.4374 107.421 21.2404 107.421 22.2084C107.421 23.1544 107.069 23.9464 106.365 24.5844C105.683 25.2004 104.781 25.5084 103.659 25.5084ZM106.86 27.2244V45.7374H100.392V27.2244H106.86Z" fill="black"/>
<path d="M117.011 30.4914C117.737 29.4354 118.617 28.5994 119.651 27.9834C120.685 27.3674 121.796 27.0594 122.984 27.0594V33.9564H121.169C119.761 33.9564 118.716 34.2314 118.034 34.7814C117.352 35.3314 117.011 36.2884 117.011 37.6524V45.7374H110.543V27.2244H117.011V30.4914Z" fill="black"/>
<path d="M142.991 36.2664C142.991 36.7724 142.958 37.2784 142.892 37.7844H130.649C130.715 38.7964 130.99 39.5554 131.474 40.0614C131.98 40.5454 132.618 40.7874 133.388 40.7874C134.466 40.7874 135.236 40.3034 135.698 39.3354H142.595C142.309 40.6114 141.748 41.7554 140.912 42.7674C140.098 43.7574 139.064 44.5384 137.81 45.1104C136.556 45.6824 135.17 45.9684 133.652 45.9684C131.826 45.9684 130.198 45.5834 128.768 44.8134C127.36 44.0434 126.249 42.9434 125.435 41.5134C124.643 40.0834 124.247 38.4004 124.247 36.4644C124.247 34.5284 124.643 32.8564 125.435 31.4484C126.227 30.0184 127.327 28.9184 128.735 28.1484C130.165 27.3784 131.804 26.9934 133.652 26.9934C135.478 26.9934 137.095 27.3674 138.503 28.1154C139.911 28.8634 141.011 29.9414 141.803 31.3494C142.595 32.7354 142.991 34.3744 142.991 36.2664ZM136.391 34.6494C136.391 33.8574 136.127 33.2414 135.599 32.8014C135.071 32.3394 134.411 32.1084 133.619 32.1084C132.827 32.1084 132.178 32.3284 131.672 32.7684C131.166 33.1864 130.836 33.8134 130.682 34.6494H136.391Z" fill="black"/>
<path d="M147.34 34.2204C147.34 31.9764 147.846 29.9634 148.858 28.1814C149.87 26.3774 151.245 24.9694 152.983 23.9574C154.743 22.9454 156.69 22.4394 158.824 22.4394C161.332 22.4394 163.521 23.0444 165.391 24.2544C167.261 25.4644 168.625 27.1804 169.483 29.4024H165.886C165.248 28.0164 164.324 26.9494 163.114 26.2014C161.926 25.4534 160.496 25.0794 158.824 25.0794C157.218 25.0794 155.777 25.4534 154.501 26.2014C153.225 26.9494 152.224 28.0164 151.498 29.4024C150.772 30.7664 150.409 32.3724 150.409 34.2204C150.409 36.0464 150.772 37.6524 151.498 39.0384C152.224 40.4024 153.225 41.4584 154.501 42.2064C155.777 42.9544 157.218 43.3284 158.824 43.3284C160.496 43.3284 161.926 42.9654 163.114 42.2394C164.324 41.4914 165.248 40.4244 165.886 39.0384H169.483C168.625 41.2384 167.261 42.9434 165.391 44.1534C163.521 45.3414 161.332 45.9354 158.824 45.9354C156.69 45.9354 154.743 45.4404 152.983 44.4504C151.245 43.4384 149.87 42.0414 148.858 40.2594C147.846 38.4774 147.34 36.4644 147.34 34.2204Z" fill="black"/>
<path d="M177.55 22.7364V37.2894C177.55 39.3354 178.045 40.8534 179.035 41.8434C180.047 42.8334 181.444 43.3284 183.226 43.3284C184.986 43.3284 186.361 42.8334 187.351 41.8434C188.363 40.8534 188.869 39.3354 188.869 37.2894V22.7364H191.872V37.2564C191.872 39.1704 191.487 40.7874 190.717 42.1074C189.947 43.4054 188.902 44.3734 187.582 45.0114C186.284 45.6494 184.821 45.9684 183.193 45.9684C181.565 45.9684 180.091 45.6494 178.771 45.0114C177.473 44.3734 176.439 43.4054 175.669 42.1074C174.921 40.7874 174.547 39.1704 174.547 37.2564V22.7364H177.55Z" fill="black"/>
<path d="M200.545 43.2954H208.597V45.7374H197.542V22.7364H200.545V43.2954Z" fill="black"/>
<path d="M226.603 22.7364V25.1784H220.333V45.7374H217.33V25.1784H211.027V22.7364H226.603Z" fill="black"/>
<path d="M233.896 22.7364V37.2894C233.896 39.3354 234.391 40.8534 235.381 41.8434C236.393 42.8334 237.79 43.3284 239.572 43.3284C241.332 43.3284 242.707 42.8334 243.697 41.8434C244.709 40.8534 245.215 39.3354 245.215 37.2894V22.7364H248.218V37.2564C248.218 39.1704 247.833 40.7874 247.063 42.1074C246.293 43.4054 245.248 44.3734 243.928 45.0114C242.63 45.6494 241.167 45.9684 239.539 45.9684C237.911 45.9684 236.437 45.6494 235.117 45.0114C233.819 44.3734 232.785 43.4054 232.015 42.1074C231.267 40.7874 230.893 39.1704 230.893 37.2564V22.7364H233.896Z" fill="black"/>
<path d="M265.999 45.7374L260.521 36.3324H256.891V45.7374H253.888V22.7364H261.313C263.051 22.7364 264.514 23.0334 265.702 23.6274C266.912 24.2214 267.814 25.0244 268.408 26.0364C269.002 27.0484 269.299 28.2034 269.299 29.5014C269.299 31.0854 268.837 32.4824 267.913 33.6924C267.011 34.9024 265.647 35.7054 263.821 36.1014L269.596 45.7374H265.999ZM256.891 33.9234H261.313C262.941 33.9234 264.162 33.5274 264.976 32.7354C265.79 31.9214 266.197 30.8434 266.197 29.5014C266.197 28.1374 265.79 27.0814 264.976 26.3334C264.184 25.5854 262.963 25.2114 261.313 25.2114H256.891V33.9234Z" fill="black"/>
<path d="M277.628 25.1784V32.8674H286.01V35.3424H277.628V43.2624H287V45.7374H274.625V22.7034H287V25.1784H277.628Z" fill="black"/>
<path d="M46 34C46 40.0751 41.0751 45 35 45C28.9249 45 24 40.0751 24 34C24 27.9249 28.9249 23 35 23C41.0751 23 46 27.9249 46 34Z" fill="url(#paint0_linear_19_34)"/>
<path d="M47.9816 48.4853C48.8898 49.6324 48.677 51.2272 47.6571 52.2762C44.6103 55.4099 37.1906 61.627 26 62L20.0809 55.6666C20.0234 55.0981 20 54.5354 20 54C20 47.9249 26.7157 43 35 43C40.5438 43 45.3852 45.2055 47.9816 48.4853Z" fill="url(#paint1_linear_19_34)"/>
<path d="M27.0914 68.1077C35.7941 70.0976 44.9394 68.7317 52.6535 64.29C60.3676 59.8483 66.0667 52.667 68.583 44.2174C71.0993 35.7677 70.2424 26.6894 66.1879 18.8424C62.1333 10.9954 55.1881 4.97373 46.7751 2.01107C38.362 -0.951593 29.1181 -0.630942 20.9372 2.90733C12.7563 6.4456 6.25762 12.9336 2.77271 21.0422C-0.712209 29.1507 -0.919584 38.2659 2.19307 46.5203C5.30573 54.7747 18 62 26 62L20.0809 55.6666C15.7226 52.6818 12.3615 48.4399 10.4912 43.4799C8.1658 37.3134 8.32073 30.5037 10.9242 24.4461C13.5276 18.3886 18.3825 13.5416 24.4942 10.8983C30.6059 8.25497 37.5117 8.01542 43.7967 10.2287C50.0818 12.442 55.2703 16.9406 58.2993 22.8028C61.3283 28.665 61.9685 35.4471 60.0886 41.7595C58.2088 48.0719 51.263 59.1818 45.5 62.5C39.7371 65.8182 27.0914 68.1077 27.0914 68.1077Z" fill="url(#paint2_linear_19_34)"/>
<defs>
<linearGradient id="paint0_linear_19_34" x1="35" y1="0" x2="35" y2="69.0001" gradientUnits="userSpaceOnUse">
<stop stop-color="#1E69B3"/>
<stop offset="1" stop-color="#42BBC7"/>
</linearGradient>
<linearGradient id="paint1_linear_19_34" x1="35" y1="0" x2="35" y2="69.0001" gradientUnits="userSpaceOnUse">
<stop stop-color="#1E69B3"/>
<stop offset="1" stop-color="#42BBC7"/>
</linearGradient>
<linearGradient id="paint2_linear_19_34" x1="35" y1="0" x2="35" y2="69.0001" gradientUnits="userSpaceOnUse">
<stop stop-color="#1E69B3"/>
<stop offset="1" stop-color="#42BBC7"/>
</linearGradient>
</defs>
</svg>
